<?xml version="1.0" encoding="UTF-8" standalone="no"?>
<!-- Created with Inkscape (http://www.inkscape.org/) -->

<svg
   width="210mm"
   height="297mm"
   viewBox="0 0 210 297"
   version="1.1"
   id="svg1"
   inkscape:version="1.4.2 (f4327f4, 2025-05-13)"
   sodipodi:docname="icone feuille.svg"
   xmlns:inkscape="http://www.inkscape.org/namespaces/inkscape"
   xmlns:sodipodi="http://sodipodi.sourceforge.net/DTD/sodipodi-0.dtd"
   xmlns="http://www.w3.org/2000/svg"
   xmlns:svg="http://www.w3.org/2000/svg">
  <sodipodi:namedview
     id="namedview1"
     pagecolor="#505050"
     bordercolor="#eeeeee"
     borderopacity="1"
     inkscape:showpageshadow="0"
     inkscape:pageopacity="0"
     inkscape:pagecheckerboard="0"
     inkscape:deskcolor="#505050"
     inkscape:document-units="mm"
     inkscape:zoom="0.74208053"
     inkscape:cx="660.3057"
     inkscape:cy="613.81479"
     inkscape:window-width="1920"
     inkscape:window-height="1051"
     inkscape:window-x="-9"
     inkscape:window-y="-9"
     inkscape:window-maximized="1"
     inkscape:current-layer="layer1" />
  <defs
     id="defs1" />
  <g
     inkscape:label="Calque 1"
     inkscape:groupmode="layer"
     id="layer1">
    <path
       style="fill:#1d372f;fill-opacity:1"
       d="m 101.90756,244.42278 c -2.090309,-1.53677 -7.509479,-7.87239 -10.555609,-12.34071 -2.04451,-2.99906 -3.09964,-4.98419 -3.92946,-7.39293 -0.63748,-1.85043 -0.68525,-2.30313 -0.63959,-6.06155 0.028,-2.30446 -0.0774,-4.53664 -0.24365,-5.15937 -0.16114,-0.60369 -1.40221,-3.3598 -2.75792,-6.12469 -4.43524,-9.04544 -7.07034,-17.3731 -8.46322,-26.7462 -1.63517,-11.00357 -1.02414,-24.50392 1.59253,-35.18587 0.79472,-3.24425 3.11199,-10.61197 3.82177,-12.15127 0.1342,-0.29104 1.0398,-2.3151 2.01245,-4.49791 1.84776,-4.14674 3.55588,-7.4915 5.71276,-11.18646 1.64346,-2.81542 2.14916,-4.3589 3.44029,-10.50032 1.19544,-5.68628 2.69169,-10.426571 4.23267,-13.409591 1.1379,-2.20273 2.07282,-3.32776 2.07282,-2.4943 0,0.25249 -0.35943,1.47739 -0.79873,2.72201 -1.0216,2.89443 -2.15569,7.414481 -3.03954,12.114491 -0.38312,2.03729 -0.76244,3.97894 -0.84293,4.31478 -0.0933,0.3893 1.47175,-1.00843 4.31794,-3.85627 4.930229,-4.93308 7.867189,-7.460111 13.561669,-11.668741 2.09314,-1.54698 5.96267,-4.40828 8.59896,-6.358459 3.79644,-2.808395 5.70112,-4.459075 9.15887,-7.9375 4.64085,-4.668597 6.27086,-6.758254 9.59456,-12.300142 1.14416,-1.907768 2.19189,-3.508356 2.32829,-3.556862 0.41565,-0.147822 0.27802,1.206363 -0.2957,2.90941 -1.19294,3.541198 -4.3743,8.88004 -7.54212,12.656909 -3.91122,4.6632 -8.43853,8.635501 -15.99128,14.030874 -7.52738,5.37726 -12.20566,9.250641 -17.06759,14.131141 -4.537519,4.55482 -7.919699,8.75996 -10.305699,12.81328 -0.11712,0.19897 0.66591,-0.37646 1.74007,-1.27872 2.53192,-2.12675 4.48686,-3.39903 7.90614,-5.14535 3.712579,-1.89611 6.705129,-2.98091 14.333039,-5.1957 3.51963,-1.02194 8.29256,-2.56812 10.60651,-3.43596 2.31396,-0.86784 4.37621,-1.5779 4.58278,-1.5779 0.77739,0 0.31659,0.55687 -1.54264,1.86427 -3.36297,2.36482 -7.0136,3.98094 -14.55021,6.44132 -11.18624,3.65184 -16.815299,6.77608 -22.695489,12.5965 -1.54366,1.52796 -3.35102,3.61156 -4.01635,4.6302 -3.58562,5.48973 -7.1251,17.50151 -8.14725,27.64896 -0.15391,1.52797 -0.34443,4.68313 -0.42338,7.01146 l -0.14354,4.23333 0.77881,-2.11666 c 2.61514,-7.10746 5.99343,-12.02289 11.69272,-17.01299 3.80932,-3.3353 7.22197,-5.37099 17.727079,-10.57443 11.36418,-5.62896 13.56281,-6.81299 17.59479,-9.47534 12.79906,-8.45134 21.77719,-20.43213 27.21848,-36.321471 3.28661,-9.597384 4.61728,-18.529236 4.32184,-29.009522 -0.15952,-5.658638 -0.6168,-9.735477 -1.66052,-14.804058 -0.75374,-3.660334 -2.53182,-10.002363 -3.25461,-11.608472 l -0.49689,-1.104137 -0.31255,0.783081 c -0.8728,2.186806 -4.17816,6.850584 -6.97167,9.836858 -3.77942,4.040213 -10.50087,9.033672 -17.65345,13.115011 -1.67349,0.95491 -6.32179,3.463811 -10.32956,5.575336 -8.37499,4.412434 -10.72642,5.766355 -15.38985,8.861242 -9.469669,6.284557 -17.643209,14.448611 -22.576559,22.550351 -4.42796,7.271781 -7.597959,16.607001 -8.712327,25.656681 -0.519661,4.22011 -0.522546,11.84953 -0.0062,16.26406 0.434148,3.71142 1.336263,8.05011 2.368648,11.39193 0.559782,1.81201 0.600528,2.16891 0.283779,2.48566 -1.118346,1.11834 -4.583902,-7.93661 -5.811599,-15.18479 -2.545335,-15.02738 0.792306,-30.67916 9.309409,-43.656251 4.57421,-6.969508 10.08112,-12.708755 17.63885,-18.383063 6.11636,-4.592132 11.855759,-7.969702 23.120599,-13.606208 12.32786,-6.168401 17.68069,-9.807612 24.01818,-16.329173 4.74494,-4.882754 7.58585,-9.275366 8.69359,-13.442033 0.85673,-3.222548 1.2975,-3.558857 2.71324,-2.070254 2.95297,3.104935 7.17365,17.240319 8.43346,28.24427 0.34345,2.999974 0.40804,5.24983 0.29621,10.31875 -0.20065,9.094416 -1.06886,14.61263 -3.65556,23.234051 -5.30895,17.694601 -15.30047,31.049541 -31.05582,41.510011 -4.74646,3.15133 -6.31618,4.01567 -16.3124,8.98212 -9.848099,4.89287 -12.610779,6.47532 -16.271199,9.32008 -6.02935,4.68583 -9.78471,9.92664 -12.02459,16.78094 -1.31083,4.01128 -1.64531,6.60717 -1.47276,11.43009 0.24394,6.81845 1.99087,13.7844 5.05512,20.15747 1.99377,4.14669 3.58286,6.49296 6.06993,8.96219 1.74745,1.73492 2.62978,2.37093 4.73572,3.41368 4.11323,2.03665 5.367249,3.38691 11.558759,12.44583 1.79027,2.61937 4.19139,5.9386 5.33583,7.37607 1.66461,2.09082 2.0808,2.791 2.0808,3.50068 0,0.71645 -0.12252,0.91787 -0.63682,1.04695 -1.36743,0.34321 -1.94341,-0.31089 -7.54142,-8.56429 -6.26871,-9.24224 -7.783249,-10.98297 -10.813839,-12.42879 -1.53332,-0.73151 -2.12726,-0.88715 -2.91042,-0.76268 -2.79786,0.44468 -3.74919,4.79352 -2.04123,9.33116 1.38588,3.68194 5.51508,9.58817 10.851049,15.52089 1.67118,1.85808 3.03851,3.53091 3.03851,3.71739 0,0.46636 -0.5499,0.97543 -1.0451,0.96751 -0.22556,-0.004 -0.94588,-0.40045 -1.60073,-0.88189 z M 88.281521,221.23415 c 0.0899,-0.14552 0.0374,-0.26458 -0.11668,-0.26458 -0.15411,0 -0.28019,0.11906 -0.28019,0.26458 0,0.14552 0.0525,0.26458 0.11667,0.26458 0.0642,0 0.19026,-0.11906 0.2802,-0.26458 z m 19.558389,19.60033 c -3.23732,-2.00214 -9.371929,-10.68935 -9.371929,-13.27157 0,-0.41063 0.14346,-0.52392 0.58275,-0.46018 0.40434,0.0587 1.305979,1.11737 2.945119,3.45816 1.29931,1.85548 3.53739,4.75515 4.97351,6.4437 1.43611,1.68855 2.61112,3.23209 2.61112,3.4301 0,0.70199 -0.91289,0.91167 -1.74057,0.39979 z"
       id="path1" />
  </g>
</svg>
