<?xml version="1.0" encoding="UTF-8" standalone="no"?>
<!-- Created with Inkscape (http://www.inkscape.org/) -->

<svg
   version="1.1"
   id="svg1"
   width="1024"
   height="1024"
   viewBox="0 0 1024 1024"
   sodipodi:docname="logo rond fond vide.svg"
   inkscape:version="1.4.2 (f4327f4, 2025-05-13)"
   xmlns:inkscape="http://www.inkscape.org/namespaces/inkscape"
   xmlns:sodipodi="http://sodipodi.sourceforge.net/DTD/sodipodi-0.dtd"
   xmlns="http://www.w3.org/2000/svg"
   xmlns:svg="http://www.w3.org/2000/svg">
  <defs
     id="defs1">
    <linearGradient
       id="swatch5">
      <stop
         style="stop-color:#c8a14f;stop-opacity:1;"
         offset="0"
         id="stop6" />
    </linearGradient>
    <clipPath
       clipPathUnits="userSpaceOnUse"
       id="clipPath7">
      <path
         style="fill:none;fill-opacity:1;fill-rule:evenodd;stroke:#c8a14f;stroke-width:7.68599;stroke-dasharray:none;stroke-dashoffset:0;stroke-opacity:1;paint-order:normal"
         id="path7"
         sodipodi:type="arc"
         sodipodi:cx="512.00049"
         sodipodi:cy="511.99997"
         sodipodi:rx="508.15701"
         sodipodi:ry="508.15701"
         sodipodi:start="0"
         sodipodi:end="6.2774724"
         sodipodi:arc-type="chord"
         d="M 1020.1575,511.99997 A 508.15701,508.15701 0 0 1 512.72625,1020.1565 508.15701,508.15701 0 0 1 3.8455485,513.45149 508.15701,508.15701 0 0 1 509.8232,3.847621 508.15701,508.15701 0 0 1 1020.1492,509.09693 Z"
         sodipodi:open="true"
         inkscape:label="cercle doré" />
    </clipPath>
    <clipPath
       clipPathUnits="userSpaceOnUse"
       id="clipPath8">
      <path
         style="fill:none;fill-opacity:1;fill-rule:evenodd;stroke:#c8a14f;stroke-width:7.68599;stroke-dasharray:none;stroke-dashoffset:0;stroke-opacity:1;paint-order:normal"
         id="path8"
         sodipodi:type="arc"
         sodipodi:cx="512.00049"
         sodipodi:cy="511.99997"
         sodipodi:rx="508.15701"
         sodipodi:ry="508.15701"
         sodipodi:start="0"
         sodipodi:end="6.2774724"
         sodipodi:arc-type="chord"
         d="M 1020.1575,511.99997 A 508.15701,508.15701 0 0 1 512.72625,1020.1565 508.15701,508.15701 0 0 1 3.8455485,513.45149 508.15701,508.15701 0 0 1 509.8232,3.847621 508.15701,508.15701 0 0 1 1020.1492,509.09693 Z"
         sodipodi:open="true"
         inkscape:label="cercle doré" />
    </clipPath>
  </defs>
  <sodipodi:namedview
     id="namedview1"
     pagecolor="#505050"
     bordercolor="#eeeeee"
     borderopacity="1"
     inkscape:showpageshadow="0"
     inkscape:pageopacity="0"
     inkscape:pagecheckerboard="0"
     inkscape:deskcolor="#505050"
     inkscape:zoom="0.70710678"
     inkscape:cx="466.69047"
     inkscape:cy="521.1377"
     inkscape:window-width="1920"
     inkscape:window-height="1051"
     inkscape:window-x="-9"
     inkscape:window-y="-9"
     inkscape:window-maximized="1"
     inkscape:current-layer="g1" />
  <g
     inkscape:groupmode="layer"
     inkscape:label="Image"
     id="g1">
    <path
       style="fill:#c8a14f;fill-opacity:1;stroke:#cc88aa;stroke-opacity:0.0666667"
       d="m 270.0453,896.90764 c -14.64492,-2.87078 -24.75777,-13.91819 -26.569,-29.02435 -3.2633,-27.21691 21.70014,-46.1464 51.0237,-38.69067 8.67882,2.20665 9.03986,2.67304 8.671,11.20099 -0.23551,5.44478 -0.70202,7.60639 -1.6416,7.60639 -0.72192,0 -1.58067,-1.06815 -1.90833,-2.37366 -0.8598,-3.4257 -7.37174,-9.3657 -12.35302,-11.26807 -7.79381,-2.97649 -17.56107,-0.79252 -23.63937,5.28577 C 257.7279,845.54483 256.5,849.39559 256.5,862 c 0,12.89184 1.29843,16.71644 7.66237,22.5699 5.75828,5.29639 8.85755,6.70095 15.77689,7.14996 8.34632,0.5416 14.01193,-2.11669 19.02773,-8.92778 1.90685,-2.58935 3.70685,-4.32292 4,-3.85237 0.29316,0.47055 0.38313,3.80367 0.19994,7.40694 l -0.33307,6.55138 -4.16693,1.51921 c -9.04399,3.29733 -19.75209,4.22905 -28.62163,2.4904 z M 756,897.39492 c -13.55025,-2.28257 -21.84523,-7.72628 -26.91395,-17.6627 -3.13893,-6.1534 -3.40943,-7.39896 -3.35793,-15.46236 0.0645,-10.10635 2.16772,-16.81281 7.44611,-23.74369 9.01961,-11.84333 27.34594,-16.20157 44.61535,-10.61012 l 7.28958,2.3602 -0.28958,7.53162 c -0.15927,4.14239 -0.73958,7.67647 -1.28958,7.8535 -0.55,0.17704 -2.03276,-1.4862 -3.29502,-3.69608 -1.26226,-2.20988 -4.1119,-5.33411 -6.33254,-6.94273 -10.81258,-7.8326 -28.47752,-2.95683 -33.34833,9.2046 -2.55377,6.37623 -3.17076,21.03661 -1.17437,27.90396 3.14177,10.80732 14.78868,18.53325 26.64606,17.67557 8.22903,-0.59524 8.70892,-1.32916 8.04693,-12.30669 -0.48909,-8.11047 -0.76511,-9.09756 -2.79273,-9.98713 -4.12543,-1.80992 -2.3295,-2.51177 6.75,-2.63787 4.95,-0.0688 9.75,-0.18125 10.66667,-0.25 2.53242,-0.18993 2.62914,1.76784 0.14259,2.88626 -2.96843,1.33516 -4.01663,5.66177 -3.30327,13.63482 0.58817,6.57389 0.56071,6.67023 -2.5281,8.86966 -1.71751,1.22298 -5.04142,2.80103 -7.38647,3.50678 -4.8282,1.45308 -15.83558,2.50508 -19.59142,1.8724 z m -278.25,-1.1434 c -16.42925,-0.27552 -21.35654,-1.12952 -15.29485,-2.65091 3.85316,-0.96708 4.53895,-5.72488 4.48283,-31.10061 -0.0554,-25.04064 -0.78591,-29.76537 -4.68798,-30.31955 -1.2375,-0.17575 -2.25,-0.88133 -2.25,-1.56795 0,-0.95343 5.31622,-1.30774 22.5,-1.49957 l 22.5,-0.25117 v 7.56912 c 0,4.37941 -0.42141,7.56912 -1,7.56912 -0.55,0 -1,-0.70962 -1,-1.57692 0,-0.86731 -1.31538,-2.89231 -2.92308,-4.5 C 497.25312,835.09927 496.82861,835 487.57692,835 H 478 v 12.26943 12.26944 l 7.75,-0.33193 c 7.12834,-0.30531 7.95638,-0.56756 10.32283,-3.26944 1.41505,-1.61562 2.87755,-2.9375 3.25,-2.9375 0.37244,0 0.67717,4.275 0.67717,9.5 0,9.50181 -1.07731,12.05706 -2.97688,7.0608 C 495.67527,866.01569 493.01236,865 485.06574,865 H 478 v 12.42041 12.4204 l 6.54236,0.70063 c 7.49733,0.8029 13.95859,0.0113 17.19478,-2.10661 1.23042,-0.80524 3.15207,-3.2575 4.27032,-5.44945 2.19964,-4.31164 4.55231,-5.4233 3.67271,-1.73538 -0.29515,1.2375 -0.83176,4.5 -1.19247,7.25 -1.14604,8.73744 -0.95963,8.52629 -7.30509,8.2746 -3.12543,-0.12397 -13.67011,-0.35936 -23.43261,-0.52308 z m 95.60647,-1.17581 C 569.33996,892.62658 564.6791,886.50254 559,876.21236 l -4.5,-8.15374 -5.25,-0.0293 L 544,868 v 11.34501 c 0,9.72087 0.2618,11.58194 1.82874,13 1.00581,0.91025 2.58081,1.65499 3.5,1.65499 0.91919,0 1.67126,0.45 1.67126,1 0,0.61358 -4.85301,1 -12.55902,1 -8.11803,0 -12.34047,-0.35361 -11.94098,-1 0.33992,-0.55 1.19673,-1 1.90403,-1 0.7073,0 2.03074,-0.82293 2.94098,-1.82874 C 532.79966,890.56389 533,887.04792 533,863.1258 v -27.21671 l -2.45455,-2.45454 c -1.35,-1.35 -2.925,-2.45455 -3.5,-2.45455 -0.575,0 -1.04545,-0.45 -1.04545,-1 0,-1.72436 30.76071,-1.26023 36.87809,0.55644 C 571.86264,833.22456 578,840.73046 578,849.0503 c 0,4.76971 -4.03579,10.97027 -8.91243,13.69299 l -4.66756,2.60599 7.82864,11.78051 c 4.30575,6.47928 9.61124,13.30636 11.78999,15.17129 2.17875,1.86493 3.96136,3.68511 3.96136,4.04485 0,1.58505 -11.61297,0.57771 -14.64353,-1.27022 z m -13.67029,-34.02594 c 4.60535,-2.80808 5.58104,-5.31491 5.13576,-13.19529 -0.34805,-6.15957 -0.7255,-7.21958 -3.59117,-10.08525 -2.87797,-2.87797 -3.91253,-3.24238 -10.21651,-3.59858 L 544,833.77431 V 848.38715 863 l 6.25,-0.004 c 4.42347,-0.003 7.18115,-0.5715 9.43618,-1.94649 z m 139.99994,33.91797 c -1.42098,-1.11774 -6.30078,-6.85524 -10.84399,-12.75 -4.54321,-5.89476 -12.32877,-15.69008 -17.30126,-21.76738 -4.97248,-6.07731 -10.25448,-12.60231 -11.73778,-14.5 l -2.69691,-3.45036 0.43924,23.30141 c 0.24158,12.81578 0.8832,24.13095 1.4258,25.14482 0.54261,1.01387 2.34606,2.31733 4.00767,2.89657 1.66161,0.57924 3.02111,1.30157 3.02111,1.60518 0,0.30361 -4.725,0.55202 -10.5,0.55202 -6.33333,0 -10.5,-0.39683 -10.5,-1 0,-0.55 0.60526,-1 1.34501,-1 0.73976,0 2.14691,-0.88608 3.127,-1.96907 1.56848,-1.73315 1.81472,-4.45889 2.0552,-22.75 0.35828,-27.25142 -0.24815,-32.78398 -3.94174,-35.96107 -1.54893,-1.33234 -2.64572,-2.59294 -2.43731,-2.80135 0.20841,-0.20842 4.16252,-0.47895 8.78691,-0.60119 7.45356,-0.19702 8.49247,-0.006 9.15224,1.68021 0.40934,1.04636 7.59083,10.22747 15.95886,20.40247 8.36804,10.175 16.34074,20.1875 17.71711,22.25 1.37637,2.0625 2.57245,3.75 2.65795,3.75 0.0855,0 0.0142,-8.6625 -0.15852,-19.25 -0.34598,-21.21282 -1.18499,-26.44073 -4.32241,-26.93308 C 693.23058,831.54862 692.00297,830 693.5,830 c 0.275,0 4.325,0 9,0 5,0 8.5,0.41176 8.5,1 0,0.55 -0.88417,1 -1.96482,1 -1.08065,0 -2.43065,0.87042 -3,1.93426 -0.64881,1.21232 -1.03518,13.3426 -1.03518,32.5 0,33.13439 0.0684,32.76717 -5.31388,28.53348 z m -379.12217,-2.28789 c 2.39614,-3.00299 9.29999,-19.14642 22.20815,-51.92985 4.57125,-11.60981 4.66487,-11.75 7.84681,-11.75 3.00289,0 3.33486,0.35452 4.91596,5.25 0.93258,2.8875 4.82074,13.35 8.64036,23.25 3.81962,9.9 8.32631,21.6 10.01486,26 1.68856,4.4 3.91156,8.74713 4.94,9.66029 1.02845,0.91316 1.86991,1.92566 1.86991,2.25 0,0.32434 -4.95,0.58971 -11,0.58971 -10.08014,0 -13.973,-0.98928 -9.00505,-2.28843 3.31974,-0.86813 3.38671,-3.40866 0.31637,-12.00168 l -2.93345,-8.20989 -11.08808,-0.28181 -11.08809,-0.28181 -2.68535,6.8445 c -3.11898,7.94977 -3.04538,12.26766 0.23365,13.70625 4.16074,1.82542 2.30246,2.51287 -6.79263,2.51287 h -9.04263 z M 355.43626,865.75 c -0.38418,-1.2375 -2.28376,-7.2 -4.22129,-13.25 l -3.52278,-11 -1.46995,3.5 c -0.80847,1.925 -2.73029,7.1 -4.27071,11.5 -1.54041,4.4 -3.10782,8.7875 -3.48313,9.75 -0.61963,1.58909 0.16121,1.75 8.492,1.75 9.05447,0 9.16525,-0.0294 8.47586,-2.25 z M 404,895 c 0,-0.55 0.45,-1 1,-1 0.55,0 1.9,-0.9 3,-2 1.90354,-1.90354 2,-3.33333 2,-29.64504 v -27.64503 l -7.09946,0.59519 c -7.95173,0.66664 -11.11047,2.26637 -13.46483,6.8192 -2.62598,5.0781 -3.81289,2.20208 -2.2651,-5.4886 l 1.32939,-6.6055 27.63127,-0.3415 27.63127,-0.3415 0.61004,5.07639 c 1.46003,12.14958 -0.2048,15.27831 -3.89846,7.32639 -2.45587,-5.28713 -5.26227,-6.71648 -13.22412,-6.73526 L 421,835 v 27.5 c 0,26.16667 0.097,27.59697 2,29.5 1.1,1.1 2.45,2 3,2 0.55,0 1,0.45 1,1 0,0.6087 -4.5,1 -11.5,1 -7,0 -11.5,-0.3913 -11.5,-1 z m 199,0 c 0,-0.55 0.60526,-1 1.34501,-1 0.73976,0 2.08524,-0.81794 2.98996,-1.81764 1.4406,-1.59185 1.65157,-5.26821 1.69835,-29.59528 C 609.08881,833.72884 608.85392,832 604.87756,832 603.8449,832 603,831.55 603,831 c 0,-0.61111 4.66667,-1 12,-1 7.33333,0 12,0.38889 12,1 0,0.55 -0.88417,1 -1.96482,1 -1.08065,0 -2.43065,0.87042 -3,1.93426 C 621.39535,835.12979 621,846.12038 621,862.71175 c 0,22.67676 0.24162,27.1882 1.5567,29.06574 0.85619,1.22238 2.20619,2.22251 3,2.22251 0.79382,0 1.4433,0.45 1.4433,1 0,0.61111 -4.66667,1 -12,1 -7.33333,0 -12,-0.38889 -12,-1 z M 458.32143,775.21109 c -9.96346,-3.56974 -16.03342,-9.44672 -20.06445,-19.42655 -2.16342,-5.35608 -2.42903,-7.30513 -2.08076,-15.2682 0.48803,-11.15821 3.43089,-18.00439 10.63653,-24.74442 9.24025,-8.64317 24.95427,-11.39937 37.89974,-6.64751 7.81247,2.8677 16.25521,11.33819 18.88218,18.94423 2.52444,7.3092 2.51503,19.5778 -0.0207,26.93136 -2.53478,7.35092 -11.9256,16.90552 -19.07401,19.40668 -7.68261,2.68807 -19.87541,3.06273 -26.17857,0.80441 z m 19.82013,-4.37165 c 5.32802,-1.59631 11.2911,-6.96426 13.29227,-11.96566 5.36455,-13.40734 1.54189,-33.41984 -7.9807,-41.78079 -4.69073,-4.11851 -7.35068,-5.09821 -13.76823,-5.07103 C 455.89502,712.08037 448,722.10406 448,739.5536 c 0,22.0534 13.65391,36.22566 30.14156,31.28584 z M 741,775.48421 c -3.75917,-1.02712 -6.50849,-2.58096 -8.68624,-4.90922 C 726.99537,764.889 726,759.40963 726,735.8185 726,716.33333 725.87191,714.87191 724,713 c -1.1,-1.1 -2.675,-2 -3.5,-2 -0.825,0 -1.5,-0.45 -1.5,-1 0,-0.61538 5,-1 13,-1 12.05457,0 16.30959,0.95253 10.62659,2.37887 -4.22684,1.06087 -4.79794,4.6234 -4.44898,27.75299 0.29011,19.22839 0.52266,21.7073 2.32239,24.75504 2.75947,4.67303 7.73353,7.1131 14.5,7.1131 7.05682,0 11.76418,-2.4732 14.44951,-7.59163 1.90722,-3.63529 2.03249,-5.38997 1.79288,-25.1133 -0.14169,-11.66271 -0.68828,-22.33764 -1.21463,-23.72207 -0.54154,-1.42434 -2.05774,-2.7934 -3.49239,-3.15348 C 761.14105,710.06563 764.42871,709 774,709 c 6,0 10,0.4 10,1 0,0.55 -0.64948,1 -1.4433,1 -0.79381,0 -2.14381,1.00013 -3,2.22251 -1.28438,1.83371 -1.5567,5.76108 -1.5567,22.45078 0,24.73164 -0.84063,29.47874 -6.11409,34.52686 -2.12593,2.03509 -5.55746,4.20877 -7.62562,4.83041 -6.27675,1.88664 -17.23359,2.10034 -23.26029,0.45365 z m -588.61549,-0.67029 c -0.23294,-0.37735 0.79366,-1.27735 2.28134,-2 1.60286,-0.77861 3.02539,-2.5235 3.49157,-4.28282 0.97936,-3.69598 0.43526,-52.38387 -0.61229,-54.78973 -0.42115,-0.96725 -1.8411,-2.02853 -3.15543,-2.35841 -4.59486,-1.15324 -2.32036,-2.2092 6.30637,-2.9278 10.20056,-0.8497 26.12424,-0.0459 31.78138,1.60425 2.1876,0.63811 5.62667,2.80941 7.64237,4.82511 9.94054,9.94055 6.52179,25.67209 -6.93917,31.9309 -4.75818,2.21237 -7.10154,2.64479 -14.43065,2.66293 L 170,749.5 v 10.55 c 0,10.88217 0.67065,12.95 4.2,12.95 2.00262,0 2.52819,1.96635 0.55,2.05776 -9.29108,0.42931 -22.03571,0.29036 -22.36549,-0.24384 z m 33.94113,-32.99113 c 5.0208,-2.54688 7.02942,-7.23734 6.46151,-15.08867 -0.35074,-4.84896 -0.93013,-6.33864 -3.44244,-8.85095 -3.21205,-3.21205 -8.19193,-4.82039 -15.04581,-4.85931 L 170.0978,713 l -0.2989,15.5862 c -0.1644,8.5724 -0.0796,15.80419 0.18841,16.07064 1.03837,1.03227 12.70632,-0.99165 16.33833,-2.83405 z M 219.00195,774.25 C 219.00088,773.5625 219.81,773 220.8,773 c 4.01742,0 4.2,-1.33148 4.2,-30.62857 0,-24.32901 -0.21708,-28.44565 -1.57143,-29.8 C 222.56429,711.70714 221.21429,711 220.42857,711 219.64286,711 219,710.57039 219,710.04531 c 0,-1.87226 7.71557,-2.35911 22.05551,-1.39169 12.42041,0.83792 15.20178,1.33873 18.9613,3.41417 13.31183,7.34878 13.01472,24.94405 -0.52971,31.37131 l -3.50074,1.66121 2.82011,3.69984 c 1.55106,2.03492 6.02592,7.99621 9.94412,13.24732 3.91821,5.2511 8.27723,10.16464 9.68671,10.91898 4.37133,2.33946 2.92039,3.27945 -4.42169,2.86459 -6.54471,-0.36981 -7.24583,-0.64445 -11.13759,-4.36285 C 260.59375,769.28569 255.74923,763 252.1124,757.5 l -6.6124,-10 -4.75,0.30479 -4.75,0.30479 v 10.01095 c 0,10.93315 0.79776,13.47188 4.69949,14.95532 4.37661,1.66398 1.74441,2.26971 -10.20517,2.34844 -8.56508,0.0564 -11.49092,-0.24253 -11.49237,-1.17429 z m 31.45239,-32.66647 c 4.92991,-2.05985 7.03674,-5.85958 6.94242,-12.52087 C 257.24648,718.44889 252.71358,714 242.04966,714 H 236 v 14.5 14.5 h 5.53212 c 3.04266,0 7.05766,-0.63741 8.92222,-1.41647 z m 46.92798,33.23039 c -0.23174,-0.37735 0.82493,-1.28321 2.34817,-2.01302 l 2.76951,-1.32694 0.26583,-28.39074 c 0.23745,-25.35831 0.0874,-28.58794 -1.40498,-30.23698 C 300.44189,711.83081 299.08477,711 298.34501,711 297.60526,711 297,710.55 297,710 c 0,-0.61111 4.66667,-1 12,-1 7.33333,0 12,0.38889 12,1 0,0.55 -0.64286,1 -1.42857,1 -0.78572,0 -2.13572,0.70714 -3,1.57143 -1.35435,1.35435 -1.57143,5.47099 -1.57143,29.8 0,29.29709 0.18258,30.62857 4.2,30.62857 0.99,0 1.8,0.42276 1.8,0.93946 0,1.07243 -22.97371,1.92304 -23.61768,0.87446 z M 408.25,775.25349 C 401.89048,775.07317 397,774.51403 397,773.96725 397,773.43526 397.8449,773 398.87756,773 c 4.0547,0 4.30285,-1.75582 3.95503,-27.9844 L 402.5,719.93516 l -2.79344,6.28242 C 386.78259,755.2835 377.5055,775 376.75325,775 c -0.91423,0 -16.53154,-31.73366 -20.78675,-42.23774 -1.2784,-3.15575 -2.44807,-5.61402 -2.59928,-5.46282 -0.67585,0.67586 -3.424,40.3382 -2.93106,42.30222 0.32066,1.27761 1.81091,2.63742 3.55781,3.24639 1.65332,0.57635 3.00603,1.29632 3.00603,1.59993 0,0.30361 -4.275,0.55202 -9.5,0.55202 -5.66667,0 -9.5,-0.40351 -9.5,-1 0,-0.55 0.66463,-1 1.47695,-1 3.26257,0 4.34196,-4.29665 5.43893,-21.65039 1.59253,-25.1933 1.44611,-36.84476 -0.48731,-38.77818 C 343.56429,711.70714 341.98929,711 340.92857,711 339.86786,711 339,710.55 339,710 c 0,-0.58824 3.5,-1 8.5,-1 4.675,0 8.8375,-0.0314 9.25,-0.0699 0.4125,-0.0384 2.68813,4.34907 5.05695,9.75 6.1508,14.02388 15.74816,36.46706 16.6005,38.81987 0.54792,1.51248 3.4564,-4.19242 11.93182,-23.40393 l 11.2073,-25.40392 8.46317,0.22371 c 4.65474,0.12305 8.64418,0.40472 8.8654,0.62595 0.22123,0.22123 -0.74667,0.83905 -2.15088,1.37293 -1.40422,0.53388 -2.86083,1.94018 -3.23691,3.12512 -0.7842,2.47079 0.44748,49.37724 1.42423,54.23944 0.39412,1.96189 1.51496,3.60652 2.86771,4.20783 1.22139,0.54292 2.22071,1.55542 2.22071,2.25 0,0.69458 -0.1125,1.16668 -0.25,1.04911 -0.1375,-0.11756 -5.3125,-0.3573 -11.5,-0.53275 z M 523.00573,774.25 c -0.003,-0.6875 0.64375,-1.25 1.43757,-1.25 0.79381,0 2.14381,-1.00013 3,-2.22251 2.34088,-3.34207 2.32759,-55.86374 -0.0147,-58.20606 C 526.56429,711.70714 525.17679,711 524.34524,711 c -0.83155,0 -1.32363,-0.5625 -1.09352,-1.25 0.60826,-1.81727 30.81168,-1.69818 36.24828,0.14293 14.51923,4.91694 19.17985,20.79957 8.87316,30.23826 -1.58024,1.44716 -4.12058,3.26493 -5.64521,4.0395 l -2.77205,1.40831 9.12413,12.25604 c 5.01828,6.74082 10.4282,13.22017 12.02206,14.39856 1.59385,1.17838 2.89791,2.50789 2.89791,2.95446 0,0.44657 -2.59554,0.81194 -5.76787,0.81194 -8.29718,0 -11.58508,-2.6156 -20.76707,-16.52068 L 549.88487,748 H 544.94244 540 l 0.0153,10.75 c 0.008,5.9125 0.35508,11.28435 0.77035,11.93744 0.41528,0.65309 2.0458,1.67818 3.62338,2.27798 4.78922,1.82085 1.97625,2.53458 -9.98939,2.53458 -8.45684,0 -11.40968,-0.32338 -11.41392,-1.25 z m 31.45997,-32.67122 c 4.38818,-1.8335 6.67716,-6.317 6.67716,-13.07878 0,-9.9247 -4.06519,-13.99994 -15.11778,-15.15517 L 540,712.71509 V 727.85754 743 h 5.53212 c 3.04266,0 7.06278,-0.63955 8.93358,-1.42122 z m 50.7843,33.6235 c -6.14966,-0.29294 -8.16312,-1.46873 -4.26204,-2.48888 3.49645,-0.91434 4.01204,-4.96966 4.01204,-31.55599 0,-21.65326 -0.24575,-26.06326 -1.5567,-27.9349 -0.85619,-1.22238 -2.20619,-2.22251 -3,-2.22251 -0.79382,0 -1.4433,-0.45 -1.4433,-1 0,-0.62941 6.63155,-1 17.89466,-1 15.10021,0 18.91107,0.31393 24.40333,2.01032 7.48535,2.31199 15.55336,8.81781 18.78098,15.14446 6.68025,13.09439 3.29574,29.92847 -8.07202,40.14907 -7.61703,6.84836 -13.90309,8.84086 -28.50695,9.03589 -6.6,0.0881 -14.8125,0.0263 -18.25,-0.13746 z m 28.66104,-6.7685 c 10.91731,-3.2421 17.13951,-13.23162 17.04507,-27.36528 -0.0763,-11.41268 -4.18297,-18.86376 -13.26894,-24.07477 -4.40313,-2.5253 -6.24522,-2.97407 -12.18717,-2.96903 -3.85,0.003 -7.57013,0.36781 -8.26696,0.81011 -0.98156,0.62304 -1.20682,6.74772 -1,27.19005 l 0.26696,26.38586 2.5,0.69496 c 4.27722,1.189 9.42595,0.957 14.91104,-0.6719 z M 796.99776,774.25 c 10e-4,-0.6875 0.66687,-1.25 1.47919,-1.25 2.50749,0 4.30728,-4.18859 4.9414,-11.5 1.6909,-19.49594 2.59396,-45.60848 1.63902,-47.39281 -0.55834,-1.04325 -2.44762,-2.39618 -4.19842,-3.00652 -1.7508,-0.61033 -2.98967,-1.30328 -2.75306,-1.53989 0.23661,-0.23661 4.6534,-0.52303 9.81508,-0.63649 l 9.38488,-0.20628 6.46109,14.891 c 3.55359,8.19004 8.35489,19.52398 10.66956,25.18652 l 4.20848,10.29553 11.01216,-25.11802 c 6.05669,-13.81491 11.31157,-25.0854 11.67751,-25.04553 C 861.70059,708.96738 865.6,709 870,709 c 4.66667,0 8,0.41667 8,1 0,0.55 -0.60526,1 -1.34501,1 -0.73976,0 -2.14901,0.8884 -3.13167,1.97423 -1.68145,1.85799 -1.72266,3.60038 -0.69985,29.59347 1.07732,27.3787 1.55294,30.4323 4.73996,30.4323 0.72519,0 1.59665,0.45 1.93657,1 0.39841,0.64464 -3.48962,1 -10.94098,1 -11.44328,0 -13.66792,-0.60052 -9.30902,-2.51287 2.24769,-0.98612 2.25,-1.01295 2.25,-26.18695 0,-13.8599 -0.25339,-24.8849 -0.56308,-24.5 -0.3097,0.3849 -2.47757,5.19982 -4.8175,10.69982 -8.43573,19.8282 -18.76243,41.881 -19.76876,42.21645 -1.03451,0.34483 -20.60228,-39.88648 -21.88411,-44.9937 -1.37006,-5.45874 -2.18298,-3.45424 -2.86315,7.05992 -0.38132,5.89453 -1.09091,15.44233 -1.57687,21.21733 -0.96255,11.43851 -0.0136,15 3.99652,15 1.08732,0 1.97695,0.41912 1.97695,0.93138 0,0.51226 -4.27601,1.07476 -9.50224,1.25 -7.10592,0.23827 -9.50168,0.003 -9.5,-0.93138 z M 681.5,774 c 0.33992,-0.55 1.25064,-1 2.02383,-1 3.02765,0 3.47617,-3.99134 3.47617,-30.93426 0,-29.33255 0.20875,-28.14614 -5.58775,-31.75693 -1.54505,-0.96246 0.44006,-1.20249 10.33775,-1.25 7.5392,-0.0362 12.25,0.32574 12.25,0.94119 0,0.55 -0.64948,1 -1.4433,1 -0.79381,0 -2.14381,1.00013 -3,2.22251 -2.34088,3.34207 -2.32759,55.86374 0.0147,58.20606 0.86428,0.86429 2.21428,1.57143 3,1.57143 0.78571,0 1.42857,0.45 1.42857,1 0,0.60899 -4.51967,1 -11.55902,1 -7.45136,0 -11.33939,-0.35536 -10.94098,-1 z M 495.52568,653.04966 C 493.58483,649.29648 493.57389,642.45917 495.5,637 c 2.49715,-7.07768 1.94217,-12.05566 -2.23576,-20.05392 -3.11949,-5.97197 -3.79738,-8.37205 -4.1093,-14.54893 -0.20545,-4.06843 -0.66185,-7.39237 -1.01424,-7.38652 -1.44323,0.0239 -10.61218,8.02076 -13.76589,12.0061 C 470.62004,611.76161 468,619.28239 468,625.31548 c 0,5.1121 -1.68786,10.66521 -4.17694,13.74228 l -1.97557,2.44224 0.60418,-3 c 0.3323,-1.65 1.0003,-8.01671 1.48445,-14.14824 1.35897,-17.21086 3.54935,-20.96403 19.4644,-33.35176 8.55061,-6.6555 10.03402,-8.2946 13.17416,-14.55688 5.72096,-11.40913 6.08058,-16.03522 3.49372,-44.94312 -1.23044,-13.75 -2.35232,-25.11563 -2.49307,-25.25695 -0.56384,-0.56615 -10.66458,21.88292 -14.06375,31.25695 -6.00567,16.56205 -7.70191,19.66712 -15.07094,27.58836 -3.88264,4.1736 -7.84503,9.24405 -8.8053,11.26767 -2.06788,4.35773 -3.60432,12.9922 -3.67344,20.64397 -0.0717,7.93739 -2.14495,12.92024 -7.07332,17 -9.3517,7.74147 -12.35275,11.43272 -14.6487,18.01774 -1.24307,3.56524 -2.29212,7.60726 -2.33122,8.98226 -0.0695,2.4447 -0.10149,2.43364 -1.44477,-0.5 -3.67694,-8.03013 -0.51711,-16.67976 9.23323,-25.27486 3.57205,-3.14883 7.18645,-7.05625 8.03201,-8.68315 C 448.97922,604.13672 451.26409,582 450.26227,582 c -0.13273,0 -3.62024,3.53667 -7.75002,7.85926 -5.84306,6.11586 -9.52228,8.92861 -16.58593,12.67987 -10.06862,5.34709 -14.40376,9.71395 -15.80108,15.9167 -0.89516,3.97359 -0.91292,3.9351 -1.01815,-2.20583 -0.10261,-5.98848 0.0558,-6.41294 3.78687,-10.14396 2.14168,-2.14168 7.0919,-5.76165 11.00049,-8.0444 4.82001,-2.81503 8.74568,-6.14708 12.20102,-10.35604 2.80198,-3.41308 10.85877,-11.8306 17.90399,-18.7056 7.29194,-7.11575 13.70562,-14.30074 14.88993,-16.68058 1.80566,-3.62843 11.12543,-35.46262 11.1021,-37.92219 -0.005,-0.49348 -5.96718,5.23564 -13.25,12.73137 -7.36955,7.58499 -17.23775,16.52279 -22.25323,20.15513 -10.12109,7.32994 -15.72603,14.0994 -19.99972,24.15499 -1.53372,3.60871 -3.17107,6.56128 -3.63856,6.56128 -0.46749,0 -0.8393,-1.6875 -0.82624,-3.75 0.0198,-3.12673 1.46611,-7.48505 5.6357,-16.98247 1.01877,-2.32054 -12.98485,6.22698 -17.7217,10.81695 -4.75118,4.60385 -5.67845,6.67007 -8.96559,19.97774 -0.82762,3.35051 -2.725,6.27205 -7.14392,11 -3.30934,3.54078 -7.12662,8.91278 -8.48282,11.93778 -3.52191,7.85555 -3.72179,8.17398 -6.13819,9.77841 -2.11779,1.40615 -2.15522,1.36421 -1.26263,-1.41465 0.50592,-1.57507 1.60668,-5.34378 2.44613,-8.37491 1.02993,-3.71892 3.04579,-7.2913 6.19881,-10.98516 6.96879,-8.16415 7.61517,-9.45126 8.94758,-17.81687 0.67336,-4.22775 1.11113,-7.81617 0.97282,-7.97426 -0.13831,-0.15809 -1.32213,0.14841 -2.6307,0.68112 -1.30858,0.53271 -5.52923,1.88069 -9.37923,2.99551 -3.85,1.11482 -9.6548,3.62851 -12.89956,5.58598 -3.24476,1.95747 -6.10547,3.35313 -6.35714,3.10146 -0.25167,-0.25167 1.72813,-2.64231 4.39956,-5.31253 3.96743,-3.96564 6.23095,-5.27792 12.35714,-7.16407 4.125,-1.27002 9.57712,-2.95319 12.11582,-3.74038 2.80524,-0.86983 7.12006,-3.61258 11,-6.99223 9.09085,-7.91865 13.0477,-10.49009 27.2053,-17.67992 6.90106,-3.50465 14.84568,-8.1248 17.65472,-10.267 4.74773,-3.62066 12.93066,-13.84734 11.90262,-14.87538 -0.24989,-0.24989 -3.36228,-0.0661 -6.91641,0.4084 -3.55413,0.47451 -12.08705,1.15281 -18.96205,1.50734 -23.97102,1.23611 -30.43231,3.58255 -43.8913,15.93934 -8.87788,8.15084 -8.75442,8.10235 -23.28115,9.14435 -6.57443,0.47158 -10.14271,1.31739 -14.75,3.4963 C 348.7349,552.62167 346,553.57246 346,553.1537 c 0,-0.41875 1.4625,-2.1709 3.25,-3.89367 3.44597,-3.32118 9.18449,-5.18229 22.46725,-7.28658 7.98497,-1.265 10.15241,-2.58411 21.62826,-13.16299 L 400.19102,522.5 h -25.09523 c -13.80238,0 -25.09536,-0.0914 -25.09551,-0.20321 -1.6e-4,-0.11176 2.13722,-1.15734 4.74972,-2.32352 6.19523,-2.76544 16.4515,-3.67777 49.75,-4.42543 51.37912,-1.15362 62.74736,-3.39871 75.24712,-14.8604 12.55687,-11.51406 17.21499,-26.05034 19.28692,-60.18744 2.4213,-39.89319 2.34299,-39.32588 6.82101,-49.4144 5.02311,-11.31655 14.94507,-28.77205 20.3903,-35.87223 6.19666,-8.07999 14.02481,-14.76691 27.87443,-23.81072 9.14384,-5.97094 14.0984,-9.9845 17.98809,-14.57169 12.96411,-15.28881 30.02695,-30.06459 46.36084,-40.14675 6.8097,-4.20331 5.25681,-4.85826 -3.98225,-1.67955 -14.75416,5.07617 -27.54269,15.30842 -54.67406,43.74534 -6.42818,6.7375 -12.16568,12.25 -12.75,12.25 -1.44313,0 -1.28051,-5.87964 0.42871,-15.5 2.83692,-15.96765 12.89036,-31.3497 26.51665,-40.57126 10.49204,-7.10047 26.29523,-13.73044 39.47667,-16.56181 8.80476,-1.89126 28.34017,-4.29455 35.24355,-4.33574 l 5.22797,-0.0312 -2.77761,4.37984 c -1.52769,2.40891 -4.73366,8.82141 -7.12438,14.25 -13.68865,31.08266 -18.92253,40.05093 -29.21592,50.06157 -12.30325,11.96529 -25.38855,16.64179 -46.30895,16.55015 -13.93994,-0.061 -16.5606,0.64483 -24.31614,6.54967 -5.34789,4.07173 -15.26814,17.14785 -19.12473,25.20877 -3.43226,7.17402 -3.58152,7.93465 -3.43405,17.5 0.3331,21.60596 3.33623,69.44251 4.85593,77.34959 3.12713,16.27066 9.26607,29.23466 17.10145,36.1142 4.02946,3.53793 13.12337,8.31573 18.88845,9.92373 5.98189,1.66847 28.17046,3.06229 64.5,4.05171 32.9204,0.89657 41.06704,1.89314 44.7978,5.48004 1.03793,0.99791 -3.41729,1.15407 -22.25,0.77988 -13.33403,-0.26493 -23.54502,-0.0843 -23.54138,0.41649 0.004,0.4864 3.34294,4.38142 7.42091,8.6556 8.95131,9.38201 13.02982,11.37629 26.02077,12.72338 10.33394,1.07157 13.04296,1.9939 15.77966,5.37242 2.57339,3.17689 2.15294,3.61145 -1.62875,1.68344 -2.34464,-1.19537 -6.98379,-1.92593 -14.93615,-2.35211 -6.81173,-0.36505 -13.06005,-1.25531 -15.25909,-2.17413 -2.04815,-0.85577 -7.43402,-5.1178 -11.9686,-9.47118 -13.27899,-12.74837 -15.32068,-13.38444 -48.21073,-15.0197 -11.15156,-0.55445 -21.46548,-1.30674 -22.91981,-1.67175 -2.57937,-0.64738 -2.53722,-0.51109 1.71797,5.55511 5.87718,8.37848 14.24632,15.41361 23.32807,19.60963 4.13504,1.91051 8.05325,3.47365 8.70714,3.47365 4.1687,0 23.06339,7.62125 29.70591,11.982 4.16872,2.73672 10.08977,5.6758 13.15789,6.53129 11.56314,3.22418 18.53635,7.60406 21.62947,13.58549 2.302,4.45157 1.70847,4.88216 -1.96024,1.42213 -4.54605,-4.28748 -13.79595,-8.51525 -23.88167,-10.91537 l -2.79083,-0.66414 1.49902,2.89879 c 0.82446,1.59433 2.48519,6.89502 3.69051,11.7793 2.77403,11.24117 4.59891,14.82199 10.30491,20.22065 6.78557,6.42007 5.99933,7.3372 -3.10078,3.617 -4.82885,-1.97407 -8.85959,-8.48308 -12.87877,-20.79718 -1.99831,-6.12248 -4.45513,-12.71312 -5.45961,-14.64587 -4.59541,-8.84217 -11.52715,-13.20986 -28.55116,-17.99012 -13.0553,-3.66586 -19.82352,-6.68118 -24.79561,-11.04673 l -3.78188,-3.32054 0.6803,3.92165 c 2.2254,12.8285 6.24221,20.25409 13.58473,25.11314 2.26896,1.50153 3.59827,2.90575 2.95402,3.1205 -2.69744,0.89915 -8.0137,-1.07707 -11.94128,-4.43892 -4.84715,-4.14899 -7.71668,-9.42535 -11.62364,-21.37307 -5.37543,-16.43836 -8.53879,-21.10875 -22.15097,-32.70373 -3.35998,-2.86206 -8.22722,-8.02154 -10.81611,-11.46552 l -4.70707,-6.26178 0.67394,8.46551 c 2.25795,28.36271 5.06063,34.82221 25.15038,57.96552 l 10.85073,12.5 12.33538,6.25 c 8.43228,4.27241 13.49492,6.25176 16,6.25558 2.01554,0.003 5.38397,0.48301 7.4854,1.06654 3.94472,1.09539 10.95249,6.70146 12.88065,10.30425 1.0726,2.00417 1.03943,2.01147 -1.52004,0.33444 -2.89625,-1.89769 -10.6497,-5.05494 -14.97222,-6.09676 l -2.79083,-0.67265 1.67394,3.2793 c 0.92066,1.80361 4.02077,6.6543 6.88912,10.7793 5.76078,8.28461 7.52626,12.49621 7.50329,17.89922 -0.0249,5.86555 -1.54106,6.90407 -2.82321,1.93386 -0.61478,-2.38319 -1.91512,-5.50838 -2.88963,-6.94485 -4.71337,-6.9477 -13.2137,-19.80216 -15.39677,-23.28346 -2.216,-3.53382 -3.35712,-4.19754 -12.29895,-7.15353 l -9.85632,-3.25829 0.53341,9.68032 c 0.64202,11.65133 2.15354,15.60305 8.71349,22.78068 5.21983,5.71133 7.4432,10.84483 6.87089,15.86413 -0.31475,2.76046 -0.48845,2.57996 -2.3388,-2.43042 -1.37471,-3.72243 -4.11024,-7.67452 -8.76116,-12.65747 -7.80426,-8.36139 -8.93251,-10.66926 -11.20992,-22.93019 -2.29814,-12.37255 -3.7401,-15.17633 -15.17952,-29.51531 -12.35952,-15.4923 -19.17402,-24.91711 -22.94467,-31.73367 -1.59694,-2.88694 -3.1807,-5.24944 -3.51945,-5.25 -0.33876,-5.6e-4 -0.93146,6.86148 -1.3171,15.24898 -1.07846,23.45558 1.29091,33.48262 10.81062,45.75 7.48601,9.64668 10.39305,14.45017 12.43675,20.54997 3.00722,8.97566 5.12058,13.60329 7.88496,17.26571 1.37647,1.82362 2.25813,3.56021 1.95925,3.85909 -0.7777,0.7777 -6.04395,-3.15564 -9.12083,-6.8123 -1.44096,-1.71249 -2.78671,-2.9446 -2.99056,-2.73804 -0.20385,0.20656 -0.95183,3.19503 -1.66217,6.64103 -1.06915,5.18662 -1.05872,7.08069 0.0606,11 0.74365,2.604 1.5367,6.30954 1.76233,8.23454 l 0.41024,3.5 -3.00806,-3.20869 C 528.04924,647.02632 525,638.84945 525,633.90647 c 0,-1.50179 0.64735,-6.1139 1.43855,-10.24913 1.01039,-5.28086 1.15569,-8.543 0.4882,-10.96046 -0.52269,-1.89302 -4.58667,-8.56174 -9.03107,-14.81937 -4.4444,-6.25763 -8.99319,-13.15313 -10.10843,-15.32333 -1.94394,-3.78283 -2.08913,-3.86545 -3.51482,-2 -0.81791,1.0702 -3.01381,5.08312 -4.87977,8.91761 -4.29882,8.83391 -4.4791,15.01309 -0.73022,25.02821 3.79191,10.13009 3.97196,14.6707 0.903,22.77283 -2.71705,7.17309 -3.18799,11.95953 -1.59019,16.16207 1.36926,3.60144 -0.54354,3.30061 -2.44957,-0.38524 z M 198.92308,518.07692 C 197.16091,516.31475 196,514.09987 196,512.5 c 0,-3.508 4.992,-8.5 8.5,-8.5 3.508,0 8.5,4.992 8.5,8.5 0,3.508 -4.992,8.5 -8.5,8.5 -1.59987,0 -3.81475,-1.16091 -5.57692,-2.92308 z m 52,0 C 249.16091,516.31475 248,514.09987 248,512.5 c 0,-3.508 4.992,-8.5 8.5,-8.5 1.59987,0 3.81475,1.16091 5.57692,2.92308 1.76217,1.76217 2.92308,3.97705 2.92308,5.57692 0,3.508 -4.992,8.5 -8.5,8.5 -1.59987,0 -3.81475,-1.16091 -5.57692,-2.92308 z m 51,0 C 300.16091,516.31475 299,514.09987 299,512.5 c 0,-3.508 4.992,-8.5 8.5,-8.5 1.59987,0 3.81475,1.16091 5.57692,2.92308 1.76217,1.76217 2.92308,3.97705 2.92308,5.57692 0,3.508 -4.992,8.5 -8.5,8.5 -1.59987,0 -3.81475,-1.16091 -5.57692,-2.92308 z m 409,0 C 709.16091,516.31475 708,514.09987 708,512.5 c 0,-3.508 4.992,-8.5 8.5,-8.5 3.508,0 8.5,4.992 8.5,8.5 0,1.59987 -1.16091,3.81475 -2.92308,5.57692 C 720.31475,519.83909 718.09987,521 716.5,521 c -1.59987,0 -3.81475,-1.16091 -5.57692,-2.92308 z m 52,0 C 761.16091,516.31475 760,514.09987 760,512.5 c 0,-3.508 4.992,-8.5 8.5,-8.5 3.508,0 8.5,4.992 8.5,8.5 0,1.59987 -1.16091,3.81475 -2.92308,5.57692 C 772.31475,519.83909 770.09987,521 768.5,521 c -1.59987,0 -3.81475,-1.16091 -5.57692,-2.92308 z m 51,0 C 812.16091,516.31475 811,514.09987 811,512.5 c 0,-3.508 4.992,-8.5 8.5,-8.5 3.508,0 8.5,4.992 8.5,8.5 0,1.59987 -1.16091,3.81475 -2.92308,5.57692 C 823.31475,519.83909 821.09987,521 819.5,521 c -1.59987,0 -3.81475,-1.16091 -5.57692,-2.92308 z M 494.37025,399.5 c -0.47864,-2.2 -0.8297,-7.825 -0.78014,-12.5 0.12097,-11.41077 2.56207,-17.37805 12.55737,-30.69652 4.38908,-5.84833 8.86058,-12.35911 9.93666,-14.4684 1.07608,-2.1093 2.23743,-3.83508 2.58079,-3.83508 1.20945,0 -0.58612,12.77113 -2.50594,17.82369 -1.06889,2.8131 -3.58,7.34416 -5.58024,10.06904 -5.12523,6.98195 -11.239,20.49866 -13.4549,29.74695 L 495.2405,403.5 Z M 488.5,355.79577 c -4.68328,-5.937 -12.22793,-11.90319 -18.6381,-14.73871 -3.77077,-1.66799 -6.66495,-2.00756 -16.95442,-1.98925 -18.40396,0.0327 -30.26263,-3.75225 -41.5214,-13.25259 -10.80341,-9.11612 -16.94624,-18.44618 -25.41499,-38.60167 -7.34879,-17.49 -13.77615,-30.20151 -15.63072,-30.91318 -3.09517,-1.18773 -0.94841,-2.29919 4.40963,-2.28304 27.98162,0.0843 56.04792,7.91903 74.01377,20.66093 14.99471,10.63468 26.29317,31.42768 26.22092,48.2554 -0.0349,8.13204 -0.85906,7.64776 -19.70183,-11.57727 -9.78057,-9.97899 -21.3954,-20.78848 -25.81072,-24.02109 C 419.75444,280.22063 408.09991,274.32332 402,273.4341 l -4.5,-0.65599 5.97364,3.67266 c 17.09738,10.51165 30.78195,22.51144 49.79554,43.66495 7.35696,8.18495 9.87707,10.25443 16.9369,13.90828 16.5283,8.5543 26.53929,16.87095 25.46381,21.15408 -0.32067,1.27706 -1.16507,3.0794 -1.87646,4.00521 -1.16141,1.51148 -1.7017,1.16572 -5.29343,-3.38752 z m 15.27085,-37.94249 c -0.48051,-31.23301 -0.71505,-32.35498 -9.01606,-43.1308 -15.55665,-20.19459 -17.5601,-24.60966 -18.7058,-41.22248 -0.83756,-12.14474 0.10535,-33.99822 2.45937,-57 5.68066,-55.50732 6.50611,-61.5 8.47117,-61.5 0.49634,0 1.16837,0.43029 1.4934,0.9562 0.32503,0.52591 0.61811,25.16341 0.65128,54.75 0.0332,29.58659 0.37499,54.91204 0.75959,56.27877 1.68301,5.98081 9.77322,6.4555 12.79175,0.75054 1.88756,-3.56743 2.22261,-9.48516 4.31636,-76.23551 0.92444,-29.4718 1.45026,-37.29793 2.58433,-38.46429 1.24865,-1.28418 1.639,-1.24907 3.17376,0.28549 1.58634,1.58613 1.76418,4.71569 1.9016,33.46429 0.1556,32.54942 1.79351,70.69551 3.33216,77.60379 0.47643,2.13911 1.56794,4.59099 2.42558,5.44864 2.24764,2.24764 8.38017,1.81698 10.9675,-0.77019 2.05878,-2.05865 2.1251,-2.96371 2.18723,-29.84538 C 533.5993,183.97506 533.331,158.675 532.96783,143 c -0.39166,-16.90454 -0.28713,-28.90686 0.25691,-29.5 0.59557,-0.64931 1.54823,-0.22827 2.71655,1.20063 2.56675,3.13919 5.02988,25.09572 9.12035,81.29937 3.48423,47.87391 2.03829,55.81337 -13.56799,74.5 -9.9131,11.86973 -11.15465,15.35901 -12.52839,35.21005 -0.60099,8.68447 -1.53942,17.81495 -2.08539,20.28995 -1.23535,5.6 -4.64594,11.47775 -9.19892,15.85328 l -3.48928,3.35328 z"
       id="path196"
       inkscape:label="objet doré"
       clip-path="url(#clipPath8)" />
  </g>
  <g
     inkscape:groupmode="layer"
     id="layer1"
     inkscape:label="cercle">
    <ellipse
       style="fill:none;fill-opacity:1;fill-rule:evenodd;stroke:#c8a14f;stroke-width:8.79165;stroke-dasharray:none;stroke-dashoffset:0;stroke-opacity:1;paint-order:normal"
       id="path9"
       inkscape:label="cercle"
       cx="512"
       cy="512"
       rx="507.604"
       ry="507.60416" />
  </g>
</svg>
